<?xml version="1.0" standalone="no"?>
<!DOCTYPE svg PUBLIC "-//W3C//DTD SVG 1.1//EN" "http://www.w3.org/Graphics/SVG/1.1/DTD/svg11.dtd">
<svg class="icon" viewBox="0 0 1024 1024" version="1.1" xmlns="http://www.w3.org/2000/svg" xmlns:xlink="http://www.w3.org/1999/xlink">
    <path d="M452.35 234.02q-5.99 0.99-8.99 5.99t-4 5q-4 1-4-2 0-7 11-8.99h5.99z m49.98 7.99q-2.99 1-6.99-4-4-4.99-10-2 14-5.99 17.99 1 2 3-1 5z m-200.91 243.9q-3 0-4 2t-2 7q-1 5-3 7.99-2 3-6 8-5 6 0 7 2 0 7-4t7-10.99q0-2 1-4t1-4q0-2 1-2t0-2v-2l-1-1q-1-1-1-2z m488.8 205.92q0-10-31.99-24.99l4-15q2-6.99 3-15.49t2-12.5q1-4 0-12t0-11q1-3-2-12.5t-3-12.5q0-3-2-13.99-2-11-4-15-5-26.99-26.49-58.98t-41.48-42.98q13.99 10.99 32.98 47.98 48.98 91.96 30.99 158.93-6 22-28.99 23-16.99 1.99-20.99-10-4-12-5-47.98-1-35.99-6.99-60.98-5-21.99-11-39.48t-10.99-25.49l-9-13.99q-4-6-7.5-8t-4.49-5q-8-34.98-17-58.48t-17.5-31.99q-8.5-8.5-13.5-19.49-5-11-8-22.99-3-12 3-30.49t2-27.49q-4-9-23.99-13.99-10-2-25.99-10.5-16-8.5-19.99-9.5-4-1-6.5-14.99t4-28.48q6.5-14.5 20.5-15.5 21.99-2 29.98 16.49 8 18.49 2 33.49-5.99 9.99-1 14.99 5 5 17 0 6.99-2 6.99-19.99v-21.99q-2.99-16.99-7.99-28.49t-11-17.49q-6-6-12.99-8l-16-4q-60.97 4-50.97 75.97 0 9-1 9-5-5-16.49-6-11.5-1-19.5 0t-8-3q0-31.99-9-51.48t-24.99-19.49q-16 0-24.49 16.5-8.5 16.49-10.5 33.48 0 8 2 20.5t8.5 21.99q6.5 9.5 8.5 7.5 6-2 8.5-7.5t-3.5-4.5q-4 0-8-8-4-7.99-6-18.99 0-12.99 5-21.99 5-9 19-8 9.99 0 15.49 12t6.5 22.49q1 10.5-1 12.5-13 8.99-18 16.49-5 7.5-15.99 13.5-11 6-11 7-8 8-10 16t4 10q9 5 15 11t9 11q3 5 11 7t20 4q26.99 1 57.97-8 1-1 13.5-4t19.5-5.99l16.99-7q10-4 13-11 5-7.99 10.99-4.99 2 1.99 3 4.99t-1 7.5q-2 4.5-9.99 5.5-12 3-31.99 11.99l-25.99 11q-24.99 10.99-39.98 13.99-15 3-45.98-2-5-1-5 1.5t9.99 10.5q15 12.99 37.99 12.99 10.99-1 20.99-3.99 10-3 19.99-8l49.98-26.99q6-3 11-1t5 6q0 1-1 2l-1.99 3q-1 1.99-3 2.99l-6 3q-3 1-5 3t-5 3l-5.99 2q-15 8-37.49 25.49-22.49 17.49-38.99 24.49-16.5 7-28.49 0.5-12-6.5-34.99-42.48-11.99-18-14.99-12-1 2-1 6 0 13.99-8 31.48-8 17.5-16 31.99-8 14.5-12 33.49-4 18.99 6 35.98-13.99 3-36.48 50.98-22.49 47.98-26.49 80.97-1 10-1 38.99 0 28.99-3 33.99-4 13.99-15.99 2-19-17.99-21-54.98-1-14.99 2-30.99 2-10.99-1-10.99l-2 4q-19.99 35.98 6 93.96 4 7 15 15.99l12.99 11q11 13.99 58.98 52.98l53.97 42.98q9 9 10 21.99 1 12.99-8 24.49-9 11.5-26 13.49 4 8 16.5 24.5t15.5 31.99q3 15.5 4 39.49 26.99-13 4-51.98-2-5-6-9t-5-7l-1-3q2-2.99 7-6.49t11 2.5q26.98 28.98 94.96 19.99 75.97-9 101.96-49.98 12.99-21.99 18.99-17.5 6 4.5 5 30.49 0 13-13 51.98-5 14-3 22t14 8q1-10 8.5-43.99t7.5-50.98q1-12-3-41.99-4-29.99-5-55.48t13-39.49q8.99-10.99 29.99-10.99 0-20.99 18.99-30.49t40.48-6q21.49 3.5 35.49 13.5zM430.36 219.02q2-8.99-1-17.49-3-8.5-6-8.5-5-1-5 4 1 3 2 3 6 0 4 10-1 10.99 4.99 10.99 1 0 1-2z m239.91 111.96q-1-4-3-6t-8-3q-6-1-9-3t-5-5q-2-3-4-4t-3-4q-1-3-2-2t-3 1q-7 8.99 4 24.49 11 15.5 23 18.5 5 0 8-5t2-11.99zM569.31 210.03q0-7-3.5-12t-6.5-7q-3-2-5.5-1.5t-4.49 1.5q-2 1 0 2l2.99 2q8 2 10 17.99 0 2 6-1 1-1 1-1.99z m29.98-133.95q0-1-1-3t-5-3q-4-1-6-4-8-7.99-13-7.99t-7 3.99q-2 3.99 0 6.99t0.5 6.5q-1.5 3.5-5 7t-3.5 5.49q0 2 2 4.5t5 0.5l6-4.99q3.99-3 8.99-5 0-1 5-1t8-1.5q3-1.5 4.99-4.5z m322.87 766.69q11 6.99 18 13.99t6 14q-1 7-1 12t-9 13.5q-9 8.5-13 10.5t-17.5 11q-13.5 9-17.49 9-4 0-18.49 9.5-14.49 9.5-15.49 7.5-20.99 10.99-48.48 31.48-27.49 20.49-43.48 36.49-9 9.99-38.49 11.99-29.49 2-51.49-8.99-9.99-5-15.99-13t-9.5-15q-3.5-7-13.5-11.5t-25.99-5.5H500.32q-21 0-32.99 2-24.99 0-45.48 8.5t-30.99 17.5q-10.5 9-24.49 16.49-13.99 7.5-30.49 7-16.49-0.5-63.47-17.99-46.98-17.49-82.97-24.49l-58.97-10.99q-10-2-22-6t-18.49-8q-6.49-4-10.49-10.99-5-13 3.99-38.49 9-25.49 10-30.49 2-8.99-1.5-23.49-3.5-14.5-6.5-23.49-2.99-9-1.99-21.49 1-12.5 5.99-15.5 8-6 32.49-8 24.49-2 34.49-6 16.99-9.99 23.49-20.49 6.5-10.5 7.5-28.5 12 41.99-18.99 59.98-17.99 10.99-46.98 8-18.99-1-23.99 5.99-8 9 3 32.99l4 10q3 7.99 5 10.99 1.99 3 1.99 9t0.5 13.5q0.5 7.5-8.99 26.99-9.5 19.49-8 28.49t20.49 13.99q12 4 47.98 11l56.98 10.99q13.99 3 42.48 12.5 28.49 9.5 46.99 13.5 18.5 4 31.48 2 24.99-3 36.99-15.5 12-12.5 13-27.49 1-14.99-4-33.49t-10.99-30.49l-11-19.99q-68.97-108.96-95.96-137.95-38.98-42.98-64.97-23.99-6 5-9-8-1-8.99-1-20.99 1-16.99 6-29.99t12.99-26.49q8-13.5 14-24.49l13.99-40.99q10-28.98 16.99-43.98l18-35.98q9.99-21 20.99-30.99 63.97-80.97 71.97-110.96-7-63.97-9-176.92-1-51.98 13-86.97 14-34.98 59.98-58.97 22.99-12 59.98-12 30.99-1 60.48 6.99 29.48 8 50.47 24 32.99 23.99 52.48 68.97 19.49 44.98 17.49 84.97-2.99 53.97 16 121.95 19.99 63.97 76.97 124.94 30.98 33.99 56.47 92.96 25.49 58.98 33.49 107.96 6 28.99 3.5 49.48t-7.5 30.99q-5 10.5-10.99 13.49-5 1-13 10t-15.5 20.5q-7.5 11.5-23.99 19.49-16.5 8-34.49 8-10-1-17.5-3t-13.49-8q-6-6-7-8l-7-13q-6-9.99-5-10.99-11.99-19.99-23.49-15.99-11.5 3.99-15.5 27.48-4 23.49 4 55.48 10.99 38.98 0 110.95-5 36.99 10.49 57.48 15.49 20.49 41.98 19.49 26.49-1 47.48-20.99 33.99-27.99 51.49-37.49 17.5-9.5 59.47-24.49 30.99-10 43.99-20.5 13-10.5 10-20.49-3-10-14-16t-29-13.99q-18.99-6-28.49-27.49-9.49-21.49-8.49-40.99 1-19.5 9-27.49 1 18.99 4.99 32.99 4 14 8 23.49 4 9.5 11 15.49 7 6 12.5 11t12.5 7q7 2 9 6z"></path>
</svg>