<?xml version="1.0" standalone="no"?>
<!DOCTYPE svg PUBLIC "-//W3C//DTD SVG 1.1//EN" "http://www.w3.org/Graphics/SVG/1.1/DTD/svg11.dtd">
<svg class="icon" viewBox="0 0 1024 1024" version="1.1" xmlns="http://www.w3.org/2000/svg" xmlns:xlink="http://www.w3.org/1999/xlink">
    <path d="M305.066667 473.6c-6.4 0-10.666667 4.266667-10.666667 10.666667s4.266667 10.666667 10.666667 10.666666 10.666667-4.266667 10.666666-10.666666-4.266667-10.666667-10.666666-10.666667z m488.533333 160c-23.466667-21.333333-51.2-29.866667-70.4-34.133333-2.133333-14.933333-6.4-40.533333-17.066667-70.4-10.666667-27.733333-25.6-55.466667-44.8-81.066667-23.466667-32-55.466667-57.6-91.733333-81.066667-8.533333-4.266667-10.666667-10.666667-10.666667-12.8 0-6.4 2.133333-12.8 4.266667-14.933333 4.266667-4.266667 19.2-23.466667 12.8-40.533333-2.133333-8.533333-10.666667-21.333333-34.133333-21.333334h-2.133334c-19.2 0-46.933333 12.8-74.666666 49.066667-2.133333 2.133333-2.133333 4.266667-2.133334 4.266667s-2.133333 2.133333-6.4 2.133333c-10.666667 2.133333-25.6 6.4-49.066666 12.8-61.866667 19.2-119.466667 55.466667-145.066667 91.733333-27.733333 38.4-25.6 64-23.466667 74.666667l-6.4 6.4c-2.133333 4.266667-4.266667 6.4-6.4 6.4-4.266667 6.4-10.666667 23.466667-4.266666 36.266667 4.266667 8.533333 12.8 12.8 23.466666 12.8 6.4 0 14.933333-2.133333 23.466667-6.4 42.666667-21.333333 78.933333-36.266667 98.133333-44.8 6.4 8.533333 14.933333 14.933333 23.466667 21.333333 14.933333 8.533333 29.866667 14.933333 42.666667 14.933333h6.4c21.333333-2.133333 25.6-14.933333 27.733333-21.333333 2.133333-10.666667-2.133333-21.333333-12.8-29.866667 17.066667 2.133333 40.533333 4.266667 70.4 8.533334 32 4.266667 66.133333 21.333333 96 49.066666 23.466667 21.333333 40.533333 44.8 49.066667 55.466667 0 0-2.133333 2.133333-2.133334 4.266667-4.266667 6.4-8.533333 12.8-14.933333 19.2-8.533333 10.666667-14.933333 19.2-17.066667 25.6 0 2.133333-12.8 27.733333 0 42.666666 4.266667 6.4 10.666667 8.533333 19.2 8.533334 12.8 0 23.466667-8.533333 29.866667-17.066667 4.266667-6.4 14.933333-12.8 27.733333-17.066667s25.6-6.4 38.4-6.4c6.4 0 10.666667 0 10.666667 2.133334 4.266667 2.133333 17.066667 6.4 27.733333 6.4 12.8 0 21.333333-6.4 25.6-14.933334 4.266667-17.066667-12.8-32-21.333333-40.533333z m-6.4 36.266667c-6.4 0-14.933333-2.133333-19.2-4.266667s-10.666667-2.133333-19.2-2.133333c-14.933333 0-32 4.266667-46.933333 10.666666-17.066667 6.4-29.866667 14.933333-38.4 25.6-6.4 10.666667-10.666667 10.666667-12.8 10.666667 0 0-2.133333 0-2.133334-2.133333-2.133333-4.266667 0-19.2 2.133334-25.6 2.133333-4.266667 8.533333-12.8 14.933333-21.333334 6.4-6.4 12.8-14.933333 17.066667-23.466666 4.266667-6.4 6.4-12.8 6.4-17.066667V618.666667l-4.266667-6.4c-8.533333-10.666667-25.6-36.266667-53.333333-59.733334-34.133333-29.866667-70.4-49.066667-106.666667-53.333333-46.933333-6.4-76.8-10.666667-91.733333-10.666667H426.666667l-8.533334 2.133334 2.133334 10.666666s2.133333 17.066667 12.8 21.333334c6.4 4.266667 10.666667 8.533333 10.666666 12.8 0 2.133333-6.4 4.266667-10.666666 4.266666h-2.133334c-8.533333 0-21.333333-4.266667-32-10.666666-8.533333-6.4-17.066667-12.8-21.333333-21.333334l-4.266667-6.4-8.533333 2.133334c-19.2 6.4-57.6 21.333333-108.8 49.066666-6.4 2.133333-10.666667 4.266667-12.8 4.266667s-4.266667 0-4.266667-2.133333c-2.133333-4.266667 0-10.666667 2.133334-12.8 0-2.133333 2.133333-2.133333 4.266666-4.266667 6.4-6.4 12.8-14.933333 12.8-23.466667 0-10.666667-2.133333-29.866667 21.333334-61.866666 23.466667-34.133333 76.8-66.133333 134.4-85.333334 23.466667-6.4 38.4-10.666667 49.066666-12.8 6.4-2.133333 10.666667-2.133333 12.8-4.266666s4.266667-8.533333 8.533334-12.8c21.333333-29.866667 42.666667-40.533333 57.6-40.533334 8.533333 0 14.933333 6.4 14.933333 8.533334 2.133333 2.133333-2.133333 10.666667-8.533333 17.066666-4.266667 4.266667-10.666667 19.2-8.533334 32 2.133333 12.8 8.533333 23.466667 19.2 29.866667 34.133333 21.333333 64 49.066667 85.333334 76.8 19.2 23.466667 32 49.066667 42.666666 74.666667 12.8 32 14.933333 59.733333 14.933334 72.533333v8.533333h8.533333c12.8 2.133333 42.666667 6.4 66.133333 29.866667 12.8 10.666667 12.8 14.933333 12.8 17.066667 2.133333 4.266667 0 6.4-2.133333 6.4z m83.2-443.733334L582.4 59.733333c-21.333333-10.666667-44.8-17.066667-70.4-17.066666s-49.066667 6.4-70.4 17.066666L153.6 226.133333c-38.4 21.333333-68.266667 74.666667-68.266667 119.466667v332.8c0 44.8 29.866667 96 68.266667 119.466667l288 166.4c19.2 10.666667 44.8 17.066667 70.4 17.066666s49.066667-6.4 70.4-17.066666l288-166.4c38.4-23.466667 68.266667-74.666667 68.266667-119.466667V345.6c0-44.8-29.866667-98.133333-68.266667-119.466667zM896 678.4c0 29.866667-23.466667 68.266667-49.066667 83.2l-288 166.4c-10.666667 6.4-27.733333 10.666667-46.933333 10.666667s-36.266667-4.266667-49.066667-10.666667L177.066667 761.6C151.466667 746.666667 128 708.266667 128 678.4V345.6c0-29.866667 23.466667-68.266667 49.066667-83.2l288-166.4c10.666667-6.4 27.733333-10.666667 46.933333-10.666667s36.266667 4.266667 49.066667 10.666667l288 166.4c25.6 14.933333 49.066667 53.333333 49.066666 83.2L896 678.4z"></path>
</svg>